<mxfile host="app.diagrams.net" modified="2024-06-16T01:02:10.561Z" agent="Mozilla/5.0 (Windows NT 10.0; Win64; x64) AppleWebKit/537.36 (KHTML, like Gecko) Chrome/126.0.0.0 Safari/537.36" etag="UPT-1Yf6Rj6ya1V22tRI" version="24.5.4" type="github">
  <diagram id="R2lEEEUBdFMjLlhIrx00" name="Page-1">
    <mxGraphModel dx="1652" dy="799" grid="1" gridSize="10" guides="1" tooltips="1" connect="1" arrows="1" fold="1" page="1" pageScale="1" pageWidth="850" pageHeight="1100" math="0" shadow="0" extFonts="Permanent Marker^https://fonts.googleapis.com/css?family=Permanent+Marker">
      <root>
        <mxCell id="0" />
        <mxCell id="1" parent="0" />
        <mxCell id="asuZJUGxgZz5Gbu2opmC-1" value="Player" style="shape=umlActor;verticalLabelPosition=bottom;verticalAlign=top;html=1;outlineConnect=0;" vertex="1" parent="1">
          <mxGeometry x="80" y="400" width="30" height="60" as="geometry" />
        </mxCell>
        <mxCell id="asuZJUGxgZz5Gbu2opmC-3" value="클라이언트" style="swimlane;whiteSpace=wrap;html=1;" vertex="1" parent="1">
          <mxGeometry x="170" y="140" width="420" height="680" as="geometry" />
        </mxCell>
        <mxCell id="asuZJUGxgZz5Gbu2opmC-4" value="게임시작" style="ellipse;whiteSpace=wrap;html=1;" vertex="1" parent="asuZJUGxgZz5Gbu2opmC-3">
          <mxGeometry x="30" y="50" width="70" height="40" as="geometry" />
        </mxCell>
        <mxCell id="asuZJUGxgZz5Gbu2opmC-5" value="퍼즐" style="ellipse;whiteSpace=wrap;html=1;" vertex="1" parent="asuZJUGxgZz5Gbu2opmC-3">
          <mxGeometry x="30" y="160" width="70" height="40" as="geometry" />
        </mxCell>
        <mxCell id="asuZJUGxgZz5Gbu2opmC-6" value="움직임" style="ellipse;whiteSpace=wrap;html=1;" vertex="1" parent="asuZJUGxgZz5Gbu2opmC-3">
          <mxGeometry x="30" y="100" width="70" height="40" as="geometry" />
        </mxCell>
        <mxCell id="asuZJUGxgZz5Gbu2opmC-7" value="전투" style="ellipse;whiteSpace=wrap;html=1;" vertex="1" parent="asuZJUGxgZz5Gbu2opmC-3">
          <mxGeometry x="30" y="260" width="70" height="40" as="geometry" />
        </mxCell>
        <mxCell id="asuZJUGxgZz5Gbu2opmC-8" value="아이템" style="ellipse;whiteSpace=wrap;html=1;" vertex="1" parent="asuZJUGxgZz5Gbu2opmC-3">
          <mxGeometry x="30" y="380" width="70" height="40" as="geometry" />
        </mxCell>
        <mxCell id="asuZJUGxgZz5Gbu2opmC-9" value="설정" style="ellipse;whiteSpace=wrap;html=1;" vertex="1" parent="asuZJUGxgZz5Gbu2opmC-3">
          <mxGeometry x="20" y="530" width="70" height="40" as="geometry" />
        </mxCell>
        <mxCell id="asuZJUGxgZz5Gbu2opmC-10" value="게임종료" style="ellipse;whiteSpace=wrap;html=1;" vertex="1" parent="asuZJUGxgZz5Gbu2opmC-3">
          <mxGeometry x="20" y="620" width="70" height="40" as="geometry" />
        </mxCell>
        <mxCell id="asuZJUGxgZz5Gbu2opmC-42" style="edgeStyle=orthogonalEdgeStyle;rounded=0;orthogonalLoop=1;jettySize=auto;html=1;entryX=1;entryY=0.5;entryDx=0;entryDy=0;" edge="1" parent="asuZJUGxgZz5Gbu2opmC-3" source="asuZJUGxgZz5Gbu2opmC-20" target="asuZJUGxgZz5Gbu2opmC-6">
          <mxGeometry relative="1" as="geometry" />
        </mxCell>
        <mxCell id="asuZJUGxgZz5Gbu2opmC-20" value="상하좌우&amp;nbsp;&lt;div&gt;조작&lt;/div&gt;" style="ellipse;whiteSpace=wrap;html=1;" vertex="1" parent="asuZJUGxgZz5Gbu2opmC-3">
          <mxGeometry x="150" y="30" width="70" height="40" as="geometry" />
        </mxCell>
        <mxCell id="asuZJUGxgZz5Gbu2opmC-43" style="edgeStyle=orthogonalEdgeStyle;rounded=0;orthogonalLoop=1;jettySize=auto;html=1;exitX=0;exitY=0.5;exitDx=0;exitDy=0;" edge="1" parent="asuZJUGxgZz5Gbu2opmC-3" source="asuZJUGxgZz5Gbu2opmC-22">
          <mxGeometry relative="1" as="geometry">
            <mxPoint x="99.99999999999989" y="120" as="targetPoint" />
          </mxGeometry>
        </mxCell>
        <mxCell id="asuZJUGxgZz5Gbu2opmC-22" value="점프" style="ellipse;whiteSpace=wrap;html=1;" vertex="1" parent="asuZJUGxgZz5Gbu2opmC-3">
          <mxGeometry x="150" y="80" width="70" height="40" as="geometry" />
        </mxCell>
        <mxCell id="asuZJUGxgZz5Gbu2opmC-44" style="edgeStyle=orthogonalEdgeStyle;rounded=0;orthogonalLoop=1;jettySize=auto;html=1;entryX=1;entryY=0.5;entryDx=0;entryDy=0;" edge="1" parent="asuZJUGxgZz5Gbu2opmC-3" source="asuZJUGxgZz5Gbu2opmC-24" target="asuZJUGxgZz5Gbu2opmC-5">
          <mxGeometry relative="1" as="geometry" />
        </mxCell>
        <mxCell id="asuZJUGxgZz5Gbu2opmC-24" value="미로찾기" style="ellipse;whiteSpace=wrap;html=1;" vertex="1" parent="asuZJUGxgZz5Gbu2opmC-3">
          <mxGeometry x="150" y="130" width="70" height="40" as="geometry" />
        </mxCell>
        <mxCell id="asuZJUGxgZz5Gbu2opmC-45" style="edgeStyle=orthogonalEdgeStyle;rounded=0;orthogonalLoop=1;jettySize=auto;html=1;" edge="1" parent="asuZJUGxgZz5Gbu2opmC-3" source="asuZJUGxgZz5Gbu2opmC-25">
          <mxGeometry relative="1" as="geometry">
            <mxPoint x="99.99999999999989" y="180" as="targetPoint" />
          </mxGeometry>
        </mxCell>
        <mxCell id="asuZJUGxgZz5Gbu2opmC-25" value="기억조각&amp;nbsp;&lt;div&gt;찾기&lt;/div&gt;" style="ellipse;whiteSpace=wrap;html=1;" vertex="1" parent="asuZJUGxgZz5Gbu2opmC-3">
          <mxGeometry x="150" y="180" width="70" height="40" as="geometry" />
        </mxCell>
        <mxCell id="asuZJUGxgZz5Gbu2opmC-26" value="공격" style="ellipse;whiteSpace=wrap;html=1;" vertex="1" parent="asuZJUGxgZz5Gbu2opmC-3">
          <mxGeometry x="150" y="230" width="70" height="40" as="geometry" />
        </mxCell>
        <mxCell id="asuZJUGxgZz5Gbu2opmC-49" style="edgeStyle=orthogonalEdgeStyle;rounded=0;orthogonalLoop=1;jettySize=auto;html=1;entryX=1;entryY=0.5;entryDx=0;entryDy=0;" edge="1" parent="asuZJUGxgZz5Gbu2opmC-3" source="asuZJUGxgZz5Gbu2opmC-27" target="asuZJUGxgZz5Gbu2opmC-7">
          <mxGeometry relative="1" as="geometry" />
        </mxCell>
        <mxCell id="asuZJUGxgZz5Gbu2opmC-27" value="방어" style="ellipse;whiteSpace=wrap;html=1;" vertex="1" parent="asuZJUGxgZz5Gbu2opmC-3">
          <mxGeometry x="150" y="280" width="70" height="40" as="geometry" />
        </mxCell>
        <mxCell id="asuZJUGxgZz5Gbu2opmC-52" style="edgeStyle=orthogonalEdgeStyle;rounded=0;orthogonalLoop=1;jettySize=auto;html=1;entryX=1;entryY=0.5;entryDx=0;entryDy=0;" edge="1" parent="asuZJUGxgZz5Gbu2opmC-3" source="asuZJUGxgZz5Gbu2opmC-28" target="asuZJUGxgZz5Gbu2opmC-8">
          <mxGeometry relative="1" as="geometry">
            <mxPoint x="99.99999999999989" y="410" as="targetPoint" />
          </mxGeometry>
        </mxCell>
        <mxCell id="asuZJUGxgZz5Gbu2opmC-28" value="방어구" style="ellipse;whiteSpace=wrap;html=1;" vertex="1" parent="asuZJUGxgZz5Gbu2opmC-3">
          <mxGeometry x="150" y="380" width="70" height="40" as="geometry" />
        </mxCell>
        <mxCell id="asuZJUGxgZz5Gbu2opmC-51" style="edgeStyle=orthogonalEdgeStyle;rounded=0;orthogonalLoop=1;jettySize=auto;html=1;entryX=1;entryY=0.5;entryDx=0;entryDy=0;" edge="1" parent="asuZJUGxgZz5Gbu2opmC-3" source="asuZJUGxgZz5Gbu2opmC-29" target="asuZJUGxgZz5Gbu2opmC-8">
          <mxGeometry relative="1" as="geometry" />
        </mxCell>
        <mxCell id="asuZJUGxgZz5Gbu2opmC-29" value="무기" style="ellipse;whiteSpace=wrap;html=1;" vertex="1" parent="asuZJUGxgZz5Gbu2opmC-3">
          <mxGeometry x="150" y="330" width="70" height="40" as="geometry" />
        </mxCell>
        <mxCell id="asuZJUGxgZz5Gbu2opmC-53" style="edgeStyle=orthogonalEdgeStyle;rounded=0;orthogonalLoop=1;jettySize=auto;html=1;entryX=1;entryY=0.5;entryDx=0;entryDy=0;" edge="1" parent="asuZJUGxgZz5Gbu2opmC-3" source="asuZJUGxgZz5Gbu2opmC-30" target="asuZJUGxgZz5Gbu2opmC-8">
          <mxGeometry relative="1" as="geometry" />
        </mxCell>
        <mxCell id="asuZJUGxgZz5Gbu2opmC-30" value="회복 아이템" style="ellipse;whiteSpace=wrap;html=1;" vertex="1" parent="asuZJUGxgZz5Gbu2opmC-3">
          <mxGeometry x="150" y="430" width="70" height="40" as="geometry" />
        </mxCell>
        <mxCell id="asuZJUGxgZz5Gbu2opmC-46" style="edgeStyle=orthogonalEdgeStyle;rounded=0;orthogonalLoop=1;jettySize=auto;html=1;exitX=0;exitY=0.5;exitDx=0;exitDy=0;" edge="1" parent="asuZJUGxgZz5Gbu2opmC-3" source="asuZJUGxgZz5Gbu2opmC-26" target="asuZJUGxgZz5Gbu2opmC-7">
          <mxGeometry relative="1" as="geometry">
            <mxPoint x="120" y="275" as="targetPoint" />
          </mxGeometry>
        </mxCell>
        <mxCell id="asuZJUGxgZz5Gbu2opmC-56" style="edgeStyle=orthogonalEdgeStyle;rounded=0;orthogonalLoop=1;jettySize=auto;html=1;entryX=1;entryY=0.5;entryDx=0;entryDy=0;" edge="1" parent="asuZJUGxgZz5Gbu2opmC-3" source="asuZJUGxgZz5Gbu2opmC-31" target="asuZJUGxgZz5Gbu2opmC-9">
          <mxGeometry relative="1" as="geometry" />
        </mxCell>
        <mxCell id="asuZJUGxgZz5Gbu2opmC-31" value="소리 설정" style="ellipse;whiteSpace=wrap;html=1;" vertex="1" parent="asuZJUGxgZz5Gbu2opmC-3">
          <mxGeometry x="150" y="530" width="70" height="40" as="geometry" />
        </mxCell>
        <mxCell id="asuZJUGxgZz5Gbu2opmC-59" style="edgeStyle=orthogonalEdgeStyle;rounded=0;orthogonalLoop=1;jettySize=auto;html=1;entryX=1;entryY=0.5;entryDx=0;entryDy=0;" edge="1" parent="asuZJUGxgZz5Gbu2opmC-3" source="asuZJUGxgZz5Gbu2opmC-32" target="asuZJUGxgZz5Gbu2opmC-9">
          <mxGeometry relative="1" as="geometry" />
        </mxCell>
        <mxCell id="asuZJUGxgZz5Gbu2opmC-32" value="저장" style="ellipse;whiteSpace=wrap;html=1;" vertex="1" parent="asuZJUGxgZz5Gbu2opmC-3">
          <mxGeometry x="150" y="480" width="70" height="40" as="geometry" />
        </mxCell>
        <mxCell id="asuZJUGxgZz5Gbu2opmC-58" style="edgeStyle=orthogonalEdgeStyle;rounded=0;orthogonalLoop=1;jettySize=auto;html=1;entryX=1;entryY=0.5;entryDx=0;entryDy=0;" edge="1" parent="asuZJUGxgZz5Gbu2opmC-3" source="asuZJUGxgZz5Gbu2opmC-33" target="asuZJUGxgZz5Gbu2opmC-9">
          <mxGeometry relative="1" as="geometry" />
        </mxCell>
        <mxCell id="asuZJUGxgZz5Gbu2opmC-33" value="게임 중단" style="ellipse;whiteSpace=wrap;html=1;" vertex="1" parent="asuZJUGxgZz5Gbu2opmC-3">
          <mxGeometry x="150" y="580" width="70" height="40" as="geometry" />
        </mxCell>
        <mxCell id="asuZJUGxgZz5Gbu2opmC-61" value="데이터" style="shape=datastore;whiteSpace=wrap;html=1;" vertex="1" parent="asuZJUGxgZz5Gbu2opmC-3">
          <mxGeometry x="330" y="400" width="60" height="60" as="geometry" />
        </mxCell>
        <mxCell id="asuZJUGxgZz5Gbu2opmC-67" value="" style="endArrow=none;html=1;rounded=0;entryX=0;entryY=0.5;entryDx=0;entryDy=0;exitX=1;exitY=0.5;exitDx=0;exitDy=0;" edge="1" parent="asuZJUGxgZz5Gbu2opmC-3" source="asuZJUGxgZz5Gbu2opmC-29" target="asuZJUGxgZz5Gbu2opmC-61">
          <mxGeometry width="50" height="50" relative="1" as="geometry">
            <mxPoint x="220" y="310" as="sourcePoint" />
            <mxPoint x="270" y="260" as="targetPoint" />
          </mxGeometry>
        </mxCell>
        <mxCell id="asuZJUGxgZz5Gbu2opmC-68" value="" style="endArrow=none;html=1;rounded=0;entryX=0;entryY=0.5;entryDx=0;entryDy=0;exitX=1;exitY=0.5;exitDx=0;exitDy=0;" edge="1" parent="asuZJUGxgZz5Gbu2opmC-3" source="asuZJUGxgZz5Gbu2opmC-28" target="asuZJUGxgZz5Gbu2opmC-61">
          <mxGeometry width="50" height="50" relative="1" as="geometry">
            <mxPoint x="220" y="310" as="sourcePoint" />
            <mxPoint x="270" y="260" as="targetPoint" />
          </mxGeometry>
        </mxCell>
        <mxCell id="asuZJUGxgZz5Gbu2opmC-69" value="" style="endArrow=none;html=1;rounded=0;entryX=0;entryY=0.5;entryDx=0;entryDy=0;exitX=1;exitY=0.5;exitDx=0;exitDy=0;" edge="1" parent="asuZJUGxgZz5Gbu2opmC-3" source="asuZJUGxgZz5Gbu2opmC-30" target="asuZJUGxgZz5Gbu2opmC-61">
          <mxGeometry width="50" height="50" relative="1" as="geometry">
            <mxPoint x="220" y="310" as="sourcePoint" />
            <mxPoint x="270" y="260" as="targetPoint" />
          </mxGeometry>
        </mxCell>
        <mxCell id="asuZJUGxgZz5Gbu2opmC-70" value="" style="endArrow=none;html=1;rounded=0;entryX=0;entryY=0.5;entryDx=0;entryDy=0;exitX=1;exitY=0.5;exitDx=0;exitDy=0;" edge="1" parent="asuZJUGxgZz5Gbu2opmC-3" source="asuZJUGxgZz5Gbu2opmC-32" target="asuZJUGxgZz5Gbu2opmC-61">
          <mxGeometry width="50" height="50" relative="1" as="geometry">
            <mxPoint x="220" y="390" as="sourcePoint" />
            <mxPoint x="270" y="340" as="targetPoint" />
          </mxGeometry>
        </mxCell>
        <mxCell id="asuZJUGxgZz5Gbu2opmC-71" value="" style="endArrow=none;html=1;rounded=0;entryX=0;entryY=0.5;entryDx=0;entryDy=0;exitX=1;exitY=0.5;exitDx=0;exitDy=0;" edge="1" parent="asuZJUGxgZz5Gbu2opmC-3" source="asuZJUGxgZz5Gbu2opmC-31" target="asuZJUGxgZz5Gbu2opmC-61">
          <mxGeometry width="50" height="50" relative="1" as="geometry">
            <mxPoint x="220" y="390" as="sourcePoint" />
            <mxPoint x="270" y="340" as="targetPoint" />
          </mxGeometry>
        </mxCell>
        <mxCell id="asuZJUGxgZz5Gbu2opmC-72" value="Save" style="text;html=1;align=center;verticalAlign=middle;resizable=0;points=[];autosize=1;strokeColor=none;fillColor=none;" vertex="1" parent="asuZJUGxgZz5Gbu2opmC-3">
          <mxGeometry x="255" y="350" width="50" height="30" as="geometry" />
        </mxCell>
        <mxCell id="asuZJUGxgZz5Gbu2opmC-12" value="" style="endArrow=classic;html=1;rounded=0;entryX=0;entryY=0.5;entryDx=0;entryDy=0;" edge="1" parent="1" target="asuZJUGxgZz5Gbu2opmC-4">
          <mxGeometry width="50" height="50" relative="1" as="geometry">
            <mxPoint x="120" y="430" as="sourcePoint" />
            <mxPoint x="180" y="370" as="targetPoint" />
          </mxGeometry>
        </mxCell>
        <mxCell id="asuZJUGxgZz5Gbu2opmC-13" value="" style="endArrow=classic;html=1;rounded=0;entryX=0;entryY=0.5;entryDx=0;entryDy=0;" edge="1" parent="1" target="asuZJUGxgZz5Gbu2opmC-6">
          <mxGeometry width="50" height="50" relative="1" as="geometry">
            <mxPoint x="120" y="430" as="sourcePoint" />
            <mxPoint x="190" y="360" as="targetPoint" />
          </mxGeometry>
        </mxCell>
        <mxCell id="asuZJUGxgZz5Gbu2opmC-14" value="" style="endArrow=classic;html=1;rounded=0;entryX=0;entryY=0.5;entryDx=0;entryDy=0;" edge="1" parent="1" target="asuZJUGxgZz5Gbu2opmC-5">
          <mxGeometry width="50" height="50" relative="1" as="geometry">
            <mxPoint x="120" y="430" as="sourcePoint" />
            <mxPoint x="180" y="370" as="targetPoint" />
          </mxGeometry>
        </mxCell>
        <mxCell id="asuZJUGxgZz5Gbu2opmC-15" value="" style="endArrow=classic;html=1;rounded=0;entryX=0;entryY=0.5;entryDx=0;entryDy=0;" edge="1" parent="1" target="asuZJUGxgZz5Gbu2opmC-7">
          <mxGeometry width="50" height="50" relative="1" as="geometry">
            <mxPoint x="120" y="430" as="sourcePoint" />
            <mxPoint x="180" y="370" as="targetPoint" />
          </mxGeometry>
        </mxCell>
        <mxCell id="asuZJUGxgZz5Gbu2opmC-16" value="" style="endArrow=classic;html=1;rounded=0;entryX=0;entryY=0.5;entryDx=0;entryDy=0;" edge="1" parent="1" target="asuZJUGxgZz5Gbu2opmC-8">
          <mxGeometry width="50" height="50" relative="1" as="geometry">
            <mxPoint x="120" y="430" as="sourcePoint" />
            <mxPoint x="180" y="370" as="targetPoint" />
          </mxGeometry>
        </mxCell>
        <mxCell id="asuZJUGxgZz5Gbu2opmC-17" value="" style="endArrow=classic;html=1;rounded=0;entryX=0;entryY=0.5;entryDx=0;entryDy=0;" edge="1" parent="1" target="asuZJUGxgZz5Gbu2opmC-9">
          <mxGeometry width="50" height="50" relative="1" as="geometry">
            <mxPoint x="120" y="430" as="sourcePoint" />
            <mxPoint x="180" y="370" as="targetPoint" />
          </mxGeometry>
        </mxCell>
        <mxCell id="asuZJUGxgZz5Gbu2opmC-18" value="" style="endArrow=classic;html=1;rounded=0;entryX=0;entryY=0.5;entryDx=0;entryDy=0;" edge="1" parent="1" target="asuZJUGxgZz5Gbu2opmC-10">
          <mxGeometry width="50" height="50" relative="1" as="geometry">
            <mxPoint x="120" y="430" as="sourcePoint" />
            <mxPoint x="180" y="370" as="targetPoint" />
          </mxGeometry>
        </mxCell>
        <mxCell id="asuZJUGxgZz5Gbu2opmC-62" value="Pc" style="shape=umlActor;verticalLabelPosition=bottom;verticalAlign=top;html=1;outlineConnect=0;" vertex="1" parent="1">
          <mxGeometry x="630" y="540" width="30" height="60" as="geometry" />
        </mxCell>
        <mxCell id="asuZJUGxgZz5Gbu2opmC-75" value="" style="endArrow=none;html=1;rounded=0;exitX=1;exitY=0.5;exitDx=0;exitDy=0;" edge="1" parent="1" source="asuZJUGxgZz5Gbu2opmC-61">
          <mxGeometry width="50" height="50" relative="1" as="geometry">
            <mxPoint x="390" y="530" as="sourcePoint" />
            <mxPoint x="620" y="570" as="targetPoint" />
          </mxGeometry>
        </mxCell>
      </root>
    </mxGraphModel>
  </diagram>
</mxfile>
